<svg width="157" height="157" viewBox="0 0 157 157" fill="none" xmlns="http://www.w3.org/2000/svg">
<g id="Graphic Elements">
<g id="&#60;Group&#62;">
<g id="&#60;Group&#62;_2">
<g id="&#60;Group&#62;_3">
<g id="&#60;Group&#62;_4">
<g id="&#60;Group&#62;_5">
<path id="&#60;Path&#62;" d="M29.626 19.0145L20.7234 26.8801L40.2296 17.4708L29.626 19.0145Z" stroke="#B8001F" stroke-width="0.90474" stroke-linejoin="round"/>
<path id="&#60;Path&#62;_2" d="M29.626 19.0146L40.2295 17.4709C45.0427 12.8398 47.3951 10.5242 51.9188 6.0769L29.626 19.0146Z" stroke="#B8001F" stroke-width="0.90474" stroke-linejoin="round"/>
<path id="&#60;Path&#62;_3" d="M40.2296 17.4708C36.104 23.5721 34.005 26.6963 29.8431 32.9446C26.2966 30.5188 22.75 27.8357 20.7234 26.8801L40.2296 17.4708Z" stroke="#B8001F" stroke-width="0.90474" stroke-linejoin="round"/>
<path id="&#60;Path&#62;_4" d="M40.2296 17.4709C45.0428 12.8398 47.3951 10.5242 51.9188 6.0769C43.6676 16.5153 38.9991 22.102 29.8431 32.9447C34.0049 26.6964 36.1039 23.5722 40.2296 17.4709Z" stroke="#B8001F" stroke-width="0.90474" stroke-linejoin="round"/>
<path id="&#60;Path&#62;_5" d="M29.8431 32.9447C39.3972 25.4835 44.2104 21.5875 53.3664 14.5673C52.5702 10.9286 52.2445 9.20107 51.9188 6.0769C43.6676 16.5153 38.9991 22.102 29.8431 32.9447Z" stroke="#B8001F" stroke-width="0.90474" stroke-linejoin="round"/>
<path id="&#60;Path&#62;_6" d="M53.3663 14.5673C60.6405 8.94376 64.187 6.2239 70.8097 1.55603C62.9204 2.43815 59.0843 3.35701 51.9188 6.07688C52.2445 9.20104 52.5702 10.9285 53.3663 14.5673Z" stroke="#B8001F" stroke-width="0.90474" stroke-linejoin="round"/>
<path id="&#60;Path&#62;_7" d="M53.3664 14.5673C53.8368 18.7206 54.1988 20.9626 55.1035 25.5937C44.4999 27.799 39.3972 29.3427 29.8431 32.9447C39.3972 25.4835 44.2104 21.5874 53.3664 14.5673Z" stroke="#B8001F" stroke-width="0.90474" stroke-linejoin="round"/>
<path id="&#60;Path&#62;_8" d="M55.1035 25.5937C61.9433 15.4494 65.2365 10.4875 70.8097 1.55603C64.187 6.2239 60.6404 8.94376 53.3663 14.5673C53.8368 18.7206 54.1987 20.9626 55.1035 25.5937Z" stroke="#B8001F" stroke-width="0.90474" stroke-linejoin="round"/>
<path id="&#60;Path&#62;_9" d="M55.1035 25.5937C67.9869 19.0146 74.7544 16.0007 86.4075 12.2149C79.64 7.32655 76.3467 5.0845 70.8097 1.55603C65.2365 10.4875 61.9433 15.4494 55.1035 25.5937Z" stroke="#B8001F" stroke-width="0.90474" stroke-linejoin="round"/>
<path id="&#60;Path&#62;_10" d="M86.4074 12.2149C88.7959 7.9146 89.8816 5.85632 91.6911 2.14408C83.5484 0.820904 79.0609 0.673887 70.8097 1.556C76.3467 5.08447 79.64 7.32652 86.4074 12.2149Z" stroke="#B8001F" stroke-width="0.90474" stroke-linejoin="round"/>
<path id="&#60;Path&#62;_11" d="M15.0054 47.2056C20.8681 41.6556 23.8718 38.752 29.8431 32.9447C26.2965 30.5189 22.75 27.8358 20.7233 26.8801L15.0054 47.2056Z" stroke="#B8001F" stroke-width="0.90474" stroke-linejoin="round"/>
<path id="&#60;Path&#62;_12" d="M20.7233 26.8801L14.6434 35.5543L15.0053 47.2056L20.7233 26.8801Z" stroke="#B8001F" stroke-width="0.90474" stroke-linejoin="round"/>
<path id="&#60;Path&#62;_13" d="M29.8431 32.9447C27.5632 41.5453 26.8032 46.1765 26.007 55.99C20.9405 51.7632 18.6605 49.9622 15.0054 47.2056C20.8681 41.6556 23.8718 38.752 29.8431 32.9447Z" stroke="#B8001F" stroke-width="0.90474" stroke-linejoin="round"/>
<path id="&#60;Path&#62;_14" d="M29.843 32.9447C39.3971 29.3427 44.4998 27.799 55.1034 25.5938C43.8122 37.6126 37.5152 44.155 26.007 55.99C26.8031 46.1765 27.5631 41.5454 29.843 32.9447Z" stroke="#B8001F" stroke-width="0.90474" stroke-linejoin="round"/>
<path id="&#60;Path&#62;_15" d="M26.007 55.99C16.4891 56.8354 12.0016 57.4234 3.82275 58.9304C8.12932 54.4463 10.4092 52.0572 15.0053 47.2056C18.6605 49.9622 20.9404 51.7632 26.007 55.99Z" stroke="#B8001F" stroke-width="0.90474" stroke-linejoin="round"/>
<path id="&#60;Path&#62;_16" d="M55.1035 25.5937C68.2765 23.6457 75.6953 23.3517 89.4836 24.3073C88.2169 19.3087 87.5655 16.8828 86.4075 12.215C74.7544 16.0007 67.9869 19.0146 55.1035 25.5937Z" stroke="#B8001F" stroke-width="0.90474" stroke-linejoin="round"/>
<path id="&#60;Path&#62;_17" d="M26.007 55.99C36.321 48.051 41.7494 43.7139 52.2082 35.5911C53.3663 31.5113 53.9453 29.5265 55.1034 25.5938C43.8122 37.6126 37.5152 44.155 26.007 55.99Z" stroke="#B8001F" stroke-width="0.90474" stroke-linejoin="round"/>
<path id="&#60;Path&#62;_18" d="M52.2083 35.591C67.1184 29.8572 75.261 27.2476 89.4835 24.3073C75.6953 23.3516 68.2764 23.6457 55.1034 25.5937C53.9454 29.5264 53.3663 31.5112 52.2083 35.591Z" stroke="#B8001F" stroke-width="0.90474" stroke-linejoin="round"/>
<path id="&#60;Path&#62;_19" d="M86.4075 12.2149C95.2739 8.31887 99.2186 6.92218 105.624 5.78278C100.268 3.83477 97.4453 3.06291 91.6911 2.14404C89.8817 5.85629 88.796 7.91456 86.4075 12.2149Z" stroke="#B8001F" stroke-width="0.90474" stroke-linejoin="round"/>
<path id="&#60;Path&#62;_20" d="M106.42 15.4861C106.239 11.4063 106.095 9.45832 105.624 5.78284C110.944 10.0832 113.731 12.3987 119.304 17.0298L106.42 15.4861Z" stroke="#B8001F" stroke-width="0.90474" stroke-linejoin="round"/>
<path id="&#60;Path&#62;_21" d="M106.42 15.4861C98.7119 13.4646 94.6949 12.7663 86.4075 12.2149C95.2739 8.31892 99.2186 6.92224 105.624 5.78284C106.095 9.45832 106.239 11.4063 106.42 15.4861Z" stroke="#B8001F" stroke-width="0.90474" stroke-linejoin="round"/>
<path id="&#60;Path&#62;_22" d="M106.42 15.4861C100.558 18.059 97.0834 19.9335 89.4836 24.3073C88.217 19.3087 87.5655 16.8828 86.4075 12.215C94.6949 12.7663 98.7119 13.4646 106.42 15.4861Z" stroke="#B8001F" stroke-width="0.90474" stroke-linejoin="round"/>
<path id="&#60;Path&#62;_23" d="M125.746 41.0307C121.258 37.9066 119.014 36.3261 114.527 33.2387C111.306 25.9245 109.641 22.3592 106.42 15.4861C113.803 25.4467 117.856 30.7394 125.746 41.0307Z" stroke="#B8001F" stroke-width="0.90474" stroke-linejoin="round"/>
<path id="&#60;Path&#62;_24" d="M114.527 33.2387C104.647 29.1589 99.5804 27.2844 89.4835 24.3073C97.0833 19.9334 100.558 18.0589 106.42 15.4861C109.641 22.3592 111.306 25.9245 114.527 33.2387Z" stroke="#B8001F" stroke-width="0.90474" stroke-linejoin="round"/>
<path id="&#60;Path&#62;_25" d="M52.2083 35.591C57.3834 40.1118 60.2785 42.6847 66.3946 48.1244C76.2381 37.8698 81.3047 32.8344 89.4835 24.3073C75.261 27.2476 67.1184 29.8572 52.2083 35.591Z" stroke="#B8001F" stroke-width="0.90474" stroke-linejoin="round"/>
<path id="&#60;Path&#62;_26" d="M89.4835 24.3073C94.8034 34.5251 97.7709 39.9648 103.561 50.9545C108.628 43.1625 110.908 39.5238 114.527 33.2387C104.647 29.1589 99.5804 27.2844 89.4835 24.3073Z" stroke="#B8001F" stroke-width="0.90474" stroke-linejoin="round"/>
<path id="&#60;Path&#62;_27" d="M89.4836 24.3073C85.5751 38.5681 82.7885 46.6175 77.2877 63.2674C72.7278 57.0191 70.5202 53.9684 66.3946 48.1244C76.2382 37.8698 81.3047 32.8344 89.4836 24.3073Z" stroke="#B8001F" stroke-width="0.90474" stroke-linejoin="round"/>
<path id="&#60;Path&#62;_28" d="M77.2877 63.2674C88.2531 57.938 93.6815 55.3284 103.561 50.9545C97.771 39.9648 94.8034 34.5251 89.4836 24.3073C85.5751 38.5681 82.7885 46.6175 77.2877 63.2674Z" stroke="#B8001F" stroke-width="0.90474" stroke-linejoin="round"/>
<path id="&#60;Path&#62;_29" d="M103.561 50.9546C113.369 46.0662 117.929 43.9344 125.745 41.0308C121.258 37.9066 119.014 36.3262 114.527 33.2388C110.908 39.5239 108.628 43.1626 103.561 50.9546Z" stroke="#B8001F" stroke-width="0.90474" stroke-linejoin="round"/>
<path id="&#60;Path&#62;_30" d="M52.2082 35.5911C41.7494 43.7139 36.321 48.051 26.007 55.99C41.1704 52.3145 49.4216 50.5503 66.3945 48.1245C60.2785 42.6848 57.3833 40.1119 52.2082 35.5911Z" stroke="#B8001F" stroke-width="0.90474" stroke-linejoin="round"/>
<path id="&#60;Path&#62;_31" d="M3.82278 58.9304C12.0016 57.4234 16.4891 56.8354 26.007 55.99C15.2949 64.8479 10.0112 69.1115 1 76.1684L3.82278 58.9304Z" stroke="#B8001F" stroke-width="0.90474" stroke-linejoin="round"/>
<path id="&#60;Path&#62;_32" d="M26.007 55.9899C34.041 61.1724 38.7819 64.4803 48.734 71.6475C55.6462 62.2383 59.3376 57.3866 66.3945 48.1244C49.4216 50.5502 41.1704 52.3145 26.007 55.9899Z" stroke="#B8001F" stroke-width="0.90474" stroke-linejoin="round"/>
<path id="&#60;Path&#62;_33" d="M48.734 71.6475C59.808 68.3028 65.5984 66.5018 77.2876 63.2674C72.7277 57.0191 70.5201 53.9684 66.3945 48.1244C59.3376 57.3866 55.6462 62.2383 48.734 71.6475Z" stroke="#B8001F" stroke-width="0.90474" stroke-linejoin="round"/>
<path id="&#60;Path&#62;_34" d="M77.2877 63.2675C93.9711 70.692 102.584 75.029 117.965 82.1595C112.753 69.8098 109.605 63.341 103.561 50.9546C93.6815 55.3284 88.2531 57.938 77.2877 63.2675Z" stroke="#B8001F" stroke-width="0.90474" stroke-linejoin="round"/>
<path id="&#60;Path&#62;_35" d="M117.965 82.1595C123.321 76.6095 125.854 73.9631 130.559 69.1115C120.172 62.2016 114.599 58.3423 103.561 50.9546C109.605 63.341 112.753 69.8098 117.965 82.1595Z" stroke="#B8001F" stroke-width="0.90474" stroke-linejoin="round"/>
<path id="&#60;Path&#62;_36" d="M26.007 55.99C28.4317 67.1635 30.4583 73.7058 35.2353 86.8273C40.338 81.0936 43.1246 77.8959 48.734 71.6476C38.7819 64.4804 34.041 61.1724 26.007 55.99Z" stroke="#B8001F" stroke-width="0.90474" stroke-linejoin="round"/>
<path id="&#60;Path&#62;_37" d="M1 76.1684C7.80364 75.8744 11.4588 75.7274 19.0948 75.4701C21.4471 67.7148 22.8947 63.782 26.007 55.99C15.2949 64.8479 10.0112 69.1115 1 76.1684Z" stroke="#B8001F" stroke-width="0.90474" stroke-linejoin="round"/>
<path id="&#60;Path&#62;_38" d="M19.0948 75.4701C25.1747 79.6234 28.4679 81.9757 35.2354 86.8273C30.4584 73.7058 28.4318 67.1635 26.0071 55.99C22.8947 63.782 21.4472 67.7148 19.0948 75.4701Z" stroke="#B8001F" stroke-width="0.90474" stroke-linejoin="round"/>
<path id="&#60;Path&#62;_39" d="M35.2354 86.8273C50.8331 78.337 59.8081 72.787 77.2877 63.2675C65.5984 66.5019 59.8081 68.3029 48.7341 71.6476C43.1247 77.8959 40.3381 81.0936 35.2354 86.8273Z" stroke="#B8001F" stroke-width="0.90474" stroke-linejoin="round"/>
<path id="&#60;Path&#62;_40" d="M77.2877 63.2675C78.7714 70.6184 79.5676 74.4042 81.1237 82.0124C96.4681 82.086 103.959 82.1227 117.965 82.1595C102.584 75.029 93.9711 70.6919 77.2877 63.2675Z" stroke="#B8001F" stroke-width="0.90474" stroke-linejoin="round"/>
<path id="&#60;Path&#62;_41" d="M77.2877 63.2675C59.8081 72.787 50.8331 78.337 35.2354 86.8273C52.3892 85.2836 61.9433 84.1442 81.1238 82.0124C79.5676 74.4042 78.7714 70.6184 77.2877 63.2675Z" stroke="#B8001F" stroke-width="0.90474" stroke-linejoin="round"/>
<path id="&#60;Path&#62;_42" d="M117.965 82.1594C115.974 90.2455 114.816 94.2518 112.355 102.228C120.426 88.5915 124.479 81.3141 130.559 69.1115C125.854 73.9631 123.321 76.6094 117.965 82.1594Z" stroke="#B8001F" stroke-width="0.90474" stroke-linejoin="round"/>
<path id="&#60;Path&#62;_43" d="M112.355 102.228C100.847 95.0604 94.333 90.6866 81.1238 82.0125C96.4682 82.086 103.959 82.1227 117.965 82.1595C115.974 90.2455 114.816 94.2518 112.355 102.228Z" stroke="#B8001F" stroke-width="0.90474" stroke-linejoin="round"/>
<path id="&#60;Path&#62;_44" d="M81.1238 82.0125C80.5809 88.1873 80.2914 91.2747 79.7486 97.3025C61.2557 93.3697 52.0635 90.9439 35.2354 86.8273C52.3892 85.2836 61.9433 84.1442 81.1238 82.0125Z" stroke="#B8001F" stroke-width="0.90474" stroke-linejoin="round"/>
<path id="&#60;Path&#62;_45" d="M79.7485 97.3025C85.0684 100.684 87.7103 102.375 92.7406 105.536C88.3617 96.4939 85.937 91.7157 81.1237 82.0125C80.5809 88.1873 80.2914 91.2747 79.7485 97.3025Z" stroke="#B8001F" stroke-width="0.90474" stroke-linejoin="round"/>
<path id="&#60;Path&#62;_46" d="M112.355 102.228C100.847 95.0604 94.333 90.6866 81.1238 82.0125C85.937 91.7157 88.3617 96.4939 92.7407 105.536C100.739 104.323 104.683 103.661 112.355 102.228Z" stroke="#B8001F" stroke-width="0.90474" stroke-linejoin="round"/>
<path id="&#60;Path&#62;_47" d="M19.0949 75.4701C16.8873 83.2989 15.9825 87.2317 14.8969 94.3621C22.4243 91.8995 26.5861 90.3191 35.2354 86.8273C28.468 81.9757 25.1747 79.6234 19.0949 75.4701Z" stroke="#B8001F" stroke-width="0.90474" stroke-linejoin="round"/>
<path id="&#60;Path&#62;_48" d="M14.8968 94.3621C8.63599 86.4966 5.70465 82.6373 1 76.1684C7.80364 75.8744 11.4588 75.7274 19.0948 75.4701C16.8872 83.2989 15.9825 87.2317 14.8968 94.3621Z" stroke="#B8001F" stroke-width="0.90474" stroke-linejoin="round"/>
<path id="&#60;Path&#62;_49" d="M92.7406 105.536C99.2185 112.629 102.258 115.974 107.578 121.928C109.605 114.21 110.582 110.277 112.355 102.228C104.683 103.661 100.739 104.323 92.7406 105.536Z" stroke="#B8001F" stroke-width="0.90474" stroke-linejoin="round"/>
<path id="&#60;Path&#62;_50" d="M107.578 121.928C101.281 124.832 98.0967 126.229 91.7635 128.838C92.2701 119.87 92.4873 115.202 92.7406 105.536C99.2185 112.629 102.258 115.974 107.578 121.928Z" stroke="#B8001F" stroke-width="0.90474" stroke-linejoin="round"/>
<path id="&#60;Path&#62;_51" d="M91.7635 128.838C84.3084 125.604 80.1466 123.729 71.9678 119.686C79.9295 114.393 84.3084 111.453 92.7406 105.536C92.4873 115.202 92.2701 119.87 91.7635 128.838Z" stroke="#B8001F" stroke-width="0.90474" stroke-linejoin="round"/>
<path id="&#60;Path&#62;_52" d="M35.2354 86.8274C38.6372 97.7803 40.6638 103.294 44.8256 114.026C57.3834 108.66 64.6937 104.911 79.7485 97.3025C61.2557 93.3698 52.0635 90.9439 35.2354 86.8274Z" stroke="#B8001F" stroke-width="0.90474" stroke-linejoin="round"/>
<path id="&#60;Path&#62;_53" d="M44.8256 114.026C32.485 105.866 26.2604 101.64 14.8969 94.3621C22.4243 91.8996 26.5861 90.3191 35.2354 86.8274C38.6372 97.7803 40.6638 103.294 44.8256 114.026Z" stroke="#B8001F" stroke-width="0.90474" stroke-linejoin="round"/>
<path id="&#60;Path&#62;_54" d="M79.7485 97.3025C76.4915 106.565 74.8629 111.086 71.9678 119.686C79.9295 114.394 84.3084 111.453 92.7406 105.536C87.7103 102.375 85.0684 100.684 79.7485 97.3025Z" stroke="#B8001F" stroke-width="0.90474" stroke-linejoin="round"/>
<path id="&#60;Path&#62;_55" d="M71.9678 119.686C60.8937 117.848 55.3929 116.636 44.8256 114.026C57.3834 108.66 64.6936 104.911 79.7485 97.3025C76.4915 106.565 74.8629 111.086 71.9678 119.686Z" stroke="#B8001F" stroke-width="0.90474" stroke-linejoin="round"/>
<path id="&#60;Path&#62;_56" d="M14.8969 94.3621C18.8415 104.102 21.3024 109.101 26.4051 118.878C33.0278 117.665 36.7916 116.636 44.8256 114.026C32.485 105.866 26.2604 101.64 14.8969 94.3621Z" stroke="#B8001F" stroke-width="0.90474" stroke-linejoin="round"/>
<path id="&#60;Path&#62;_57" d="M14.8968 94.3621C10.3369 101.897 8.49127 105.168 6.42847 110.167C13.9921 113.732 18.0453 115.533 26.4051 118.878C21.3024 109.101 18.8415 104.102 14.8968 94.3621Z" stroke="#B8001F" stroke-width="0.90474" stroke-linejoin="round"/>
<path id="&#60;Path&#62;_58" d="M3.82275 91.4585C8.09313 92.5979 10.3369 93.186 14.8968 94.3621C10.3369 101.897 8.49122 105.168 6.42841 110.167L3.82275 91.4585Z" stroke="#B8001F" stroke-width="0.90474" stroke-linejoin="round"/>
<path id="&#60;Path&#62;_59" d="M3.82278 91.4585C8.09316 92.5979 10.3369 93.186 14.8968 94.3621C8.63599 86.4966 5.70465 82.6373 1 76.1685L3.82278 91.4585Z" stroke="#B8001F" stroke-width="0.90474" stroke-linejoin="round"/>
<path id="&#60;Path&#62;_60" d="M112.355 102.228C119.231 107.263 122.452 109.542 128.062 113.291C120.028 116.819 115.902 118.62 107.578 121.928C109.605 114.21 110.582 110.277 112.355 102.228Z" stroke="#B8001F" stroke-width="0.90474" stroke-linejoin="round"/>
<path id="&#60;Path&#62;_61" d="M107.578 121.928C115.214 124.722 118.761 125.824 124.986 127.184C126.397 121.818 127.048 119.025 128.062 113.291C120.028 116.819 115.902 118.62 107.578 121.928Z" stroke="#B8001F" stroke-width="0.90474" stroke-linejoin="round"/>
<path id="&#60;Path&#62;_62" d="M107.578 121.928C101.281 124.832 98.0967 126.229 91.7635 128.838C106.131 129.536 112.934 129.206 124.986 127.184C118.761 125.824 115.214 124.722 107.578 121.928Z" stroke="#B8001F" stroke-width="0.90474" stroke-linejoin="round"/>
<path id="&#60;Path&#62;_63" d="M112.355 102.228C118.037 100.427 120.86 99.5077 126.325 97.7068C128.785 86.3495 129.69 80.2482 130.559 69.1115C124.479 81.3141 120.426 88.5915 112.355 102.228Z" stroke="#B8001F" stroke-width="0.90474" stroke-linejoin="round"/>
<path id="&#60;Path&#62;_64" d="M128.062 113.291C122.452 109.542 119.231 107.263 112.355 102.228C118.037 100.427 120.86 99.5078 126.325 97.7068L128.062 113.291Z" stroke="#B8001F" stroke-width="0.90474" stroke-linejoin="round"/>
<path id="&#60;Path&#62;_65" d="M26.405 118.878C34.6201 122.259 38.9266 123.876 47.6845 126.743C46.4541 121.781 45.875 119.208 44.8255 114.026C36.7915 116.636 33.0277 117.665 26.405 118.878Z" stroke="#B8001F" stroke-width="0.90474" stroke-linejoin="round"/>
<path id="&#60;Path&#62;_66" d="M26.4051 118.878C22.3157 120.458 20.47 121.009 17.2491 121.708C12.8702 116.966 10.6626 114.651 6.42847 110.167C13.9921 113.732 18.0453 115.533 26.4051 118.878Z" stroke="#B8001F" stroke-width="0.90474" stroke-linejoin="round"/>
<path id="&#60;Path&#62;_67" d="M47.6846 126.743C38.9267 123.876 34.6201 122.259 26.4051 118.878C22.3157 120.458 20.47 121.009 17.2491 121.708L47.6846 126.743Z" stroke="#B8001F" stroke-width="0.90474" stroke-linejoin="round"/>
<path id="&#60;Path&#62;_68" d="M47.6845 126.743C56.5872 124.758 61.5452 123.251 71.9678 119.686C60.8937 117.849 55.3929 116.636 44.8256 114.026C45.8751 119.208 46.4541 121.781 47.6845 126.743Z" stroke="#B8001F" stroke-width="0.90474" stroke-linejoin="round"/>
<path id="&#60;Path&#62;_69" d="M130.559 69.1115C129.437 57.4234 128.387 51.7264 125.745 41.0308C117.929 43.9344 113.369 46.0662 103.561 50.9546C114.599 58.3423 120.172 62.2016 130.559 69.1115Z" stroke="#B8001F" stroke-width="0.90474" stroke-linejoin="round"/>
<path id="&#60;Path&#62;_70" d="M125.746 41.0307C125.709 36.7304 125.637 34.6354 125.239 30.7394C117.567 24.5278 113.731 21.3669 106.42 15.4861C113.803 25.4467 117.856 30.7394 125.746 41.0307Z" stroke="#B8001F" stroke-width="0.90474" stroke-linejoin="round"/>
<path id="&#60;Path&#62;_71" d="M119.304 17.0298C121.801 22.3225 122.995 25.0791 125.239 30.7394C117.567 24.5278 113.731 21.3669 106.42 15.4861L119.304 17.0298Z" stroke="#B8001F" stroke-width="0.90474" stroke-linejoin="round"/>
<path id="&#60;Path&#62;_72" d="M127.374 20.0437L125.239 30.7394C122.995 25.0791 121.801 22.3225 119.304 17.0298L127.374 20.0437Z" stroke="#B8001F" stroke-width="0.90474" stroke-linejoin="round"/>
<path id="&#60;Path&#62;_73" d="M125.239 30.7394C131.283 36.9142 134.395 40.0016 140.438 45.9559C134.757 43.8609 131.825 42.8685 125.746 41.0307C125.709 36.7304 125.637 34.6354 125.239 30.7394Z" stroke="#B8001F" stroke-width="0.90474" stroke-linejoin="round"/>
<path id="&#60;Path&#62;_74" d="M125.239 30.7394L127.374 20.0437C132.694 25.8877 137.073 29.8573 142.465 35.591L125.239 30.7394Z" stroke="#B8001F" stroke-width="0.90474" stroke-linejoin="round"/>
<path id="&#60;Path&#62;_75" d="M125.239 30.7394C131.283 36.9142 134.395 40.0016 140.438 45.9559L142.465 35.591L125.239 30.7394Z" stroke="#B8001F" stroke-width="0.90474" stroke-linejoin="round"/>
<path id="&#60;Path&#62;_76" d="M125.745 41.0308C131.898 47.5731 135.01 50.8076 140.945 56.9824C141.017 52.3513 140.909 50.146 140.438 45.9559C134.757 43.8609 131.825 42.8685 125.745 41.0308Z" stroke="#B8001F" stroke-width="0.90474" stroke-linejoin="round"/>
<path id="&#60;Path&#62;_77" d="M140.438 45.9559C145.433 48.8963 147.894 50.3665 152.671 53.1966C148.545 54.189 146.156 54.9609 140.945 56.9824C141.018 52.3513 140.909 50.146 140.438 45.9559Z" stroke="#B8001F" stroke-width="0.90474" stroke-linejoin="round"/>
<path id="&#60;Path&#62;_78" d="M142.465 35.5911C147.532 42.6848 149.667 44.8165 152.671 53.1967C147.894 50.3665 145.433 48.8963 140.438 45.9559L142.465 35.5911Z" stroke="#B8001F" stroke-width="0.90474" stroke-linejoin="round"/>
<path id="&#60;Path&#62;_79" d="M140.945 56.9824C137.326 61.2459 135.191 63.7453 130.559 69.1115C129.437 57.4234 128.387 51.7264 125.745 41.0308C131.898 47.5731 135.01 50.8076 140.945 56.9824Z" stroke="#B8001F" stroke-width="0.90474" stroke-linejoin="round"/>
<path id="&#60;Path&#62;_80" d="M140.945 56.9824C145.143 63.7086 147.134 67.0165 150.608 73.3383C143.008 71.7579 138.955 70.8758 130.559 69.1115C135.191 63.7453 137.326 61.246 140.945 56.9824Z" stroke="#B8001F" stroke-width="0.90474" stroke-linejoin="round"/>
<path id="&#60;Path&#62;_81" d="M156 65.3258C150.21 62.2016 147.17 60.5109 140.945 56.9824C145.143 63.7086 147.134 67.0165 150.608 73.3383L156 65.3258Z" stroke="#B8001F" stroke-width="0.90474" stroke-linejoin="round"/>
<path id="&#60;Path&#62;_82" d="M156 65.3258C155.059 60.3271 154.371 57.9013 152.671 53.1967C148.545 54.189 146.156 54.9609 140.945 56.9824C147.17 60.5109 150.21 62.2016 156 65.3258Z" stroke="#B8001F" stroke-width="0.90474" stroke-linejoin="round"/>
<path id="&#60;Path&#62;_83" d="M150.608 73.3383C142.32 81.5714 137.073 86.9743 126.325 97.7068C128.785 86.3495 129.69 80.2482 130.559 69.1115C138.955 70.8757 143.008 71.7578 150.608 73.3383Z" stroke="#B8001F" stroke-width="0.90474" stroke-linejoin="round"/>
<path id="&#60;Path&#62;_84" d="M155.747 97.2289C145.143 98.0375 139.172 98.1111 126.325 97.7067C137.073 86.9743 142.32 81.5713 150.608 73.3383L155.747 97.2289Z" stroke="#B8001F" stroke-width="0.90474" stroke-linejoin="round"/>
<path id="&#60;Path&#62;_85" d="M126.325 97.7068C139.172 98.1111 145.143 98.0376 155.747 97.229C145.36 103.11 139.642 106.528 128.062 113.291L126.325 97.7068Z" stroke="#B8001F" stroke-width="0.90474" stroke-linejoin="round"/>
<path id="&#60;Path&#62;_86" d="M155.747 97.229C145.36 103.11 139.642 106.528 128.062 113.291C134.865 117.959 137.76 119.796 142.031 121.855L155.747 97.229Z" stroke="#B8001F" stroke-width="0.90474" stroke-linejoin="round"/>
<path id="&#60;Path&#62;_87" d="M124.986 127.184C132.223 125.457 135.661 124.391 142.031 121.855C137.76 119.797 134.865 117.959 128.062 113.291C127.048 119.025 126.397 121.818 124.986 127.184Z" stroke="#B8001F" stroke-width="0.90474" stroke-linejoin="round"/>
<path id="&#60;Path&#62;_88" d="M47.6846 126.743C64.368 129.389 74.0668 129.904 91.7635 128.838C84.3084 125.604 80.1466 123.729 71.9678 119.686C61.5452 123.251 56.5872 124.758 47.6846 126.743Z" stroke="#B8001F" stroke-width="0.90474" stroke-linejoin="round"/>
<path id="&#60;Path&#62;_89" d="M47.6846 126.743C38.7458 132.073 34.9459 134.094 29.626 135.785C24.7042 130.088 22.1709 127.221 17.2491 121.708L47.6846 126.743Z" stroke="#B8001F" stroke-width="0.90474" stroke-linejoin="round"/>
<path id="&#60;Path&#62;_90" d="M29.626 135.785C39.8676 139.828 45.8027 141.041 58.65 141.739C54.4159 135.858 52.1721 132.844 47.6846 126.743C38.7458 132.073 34.9458 134.094 29.626 135.785Z" stroke="#B8001F" stroke-width="0.90474" stroke-linejoin="round"/>
<path id="&#60;Path&#62;_91" d="M91.7635 128.838C77.6495 135.417 70.3393 138.358 58.65 141.739C54.4158 135.858 52.1721 132.844 47.6846 126.743C64.368 129.39 74.0668 129.904 91.7635 128.838Z" stroke="#B8001F" stroke-width="0.90474" stroke-linejoin="round"/>
<path id="&#60;Path&#62;_92" d="M91.7635 128.838C90.6778 135.307 90.0988 138.431 89.0131 144.496C77.0343 144.79 70.4478 144.165 58.65 141.739C70.3393 138.358 77.6496 135.417 91.7635 128.838Z" stroke="#B8001F" stroke-width="0.90474" stroke-linejoin="round"/>
<path id="&#60;Path&#62;_93" d="M89.0131 144.496C103.344 138.909 110.763 134.976 124.986 127.184C112.934 129.206 106.131 129.537 91.7635 128.838C90.6778 135.307 90.0987 138.431 89.0131 144.496Z" stroke="#B8001F" stroke-width="0.90474" stroke-linejoin="round"/>
<path id="&#60;Path&#62;_94" d="M125.782 140.747C125.963 140.453 142.031 121.855 142.031 121.855C135.661 124.391 132.223 125.457 124.986 127.184L125.782 140.747Z" stroke="#B8001F" stroke-width="0.90474" stroke-linejoin="round"/>
<path id="&#60;Path&#62;_95" d="M124.986 127.184C115.106 137.402 110.112 142.732 101.281 152.435C111.523 148.906 116.517 146.444 125.782 140.747L124.986 127.184Z" stroke="#B8001F" stroke-width="0.90474" stroke-linejoin="round"/>
<path id="&#60;Path&#62;_96" d="M89.0131 144.496C94.5139 148.245 97.011 149.899 101.281 152.435C110.112 142.732 115.106 137.402 124.986 127.184C110.763 134.976 103.344 138.909 89.0131 144.496Z" stroke="#B8001F" stroke-width="0.90474" stroke-linejoin="round"/>
<path id="&#60;Path&#62;_97" d="M29.626 135.785C42.9437 144.974 49.9283 149.531 63.3185 156C61.509 150.487 60.5681 147.62 58.65 141.739C45.8027 141.041 39.8676 139.828 29.626 135.785Z" stroke="#B8001F" stroke-width="0.90474" stroke-linejoin="round"/>
<path id="&#60;Path&#62;_98" d="M17.2491 121.708C22.1709 127.221 24.7042 130.088 29.626 135.785L19.0948 129.353L17.2491 121.708Z" stroke="#B8001F" stroke-width="0.90474" stroke-linejoin="round"/>
<path id="&#60;Path&#62;_99" d="M101.281 152.435C97.011 149.899 94.5139 148.245 89.0131 144.496C77.7943 150.524 72.1849 153.06 63.3185 156L101.281 152.435Z" stroke="#B8001F" stroke-width="0.90474" stroke-linejoin="round"/>
<path id="&#60;Path&#62;_100" d="M101.281 152.435C101.788 152.288 121.692 147.436 121.692 147.436C123.357 144.827 124.189 143.503 125.782 140.747C116.517 146.444 111.523 148.906 101.281 152.435Z" stroke="#B8001F" stroke-width="0.90474" stroke-linejoin="round"/>
<path id="&#60;Path&#62;_101" d="M89.0131 144.496C77.7943 150.524 72.1849 153.06 63.3185 156C61.509 150.487 60.5681 147.62 58.65 141.739C70.4478 144.165 77.0343 144.79 89.0131 144.496Z" stroke="#B8001F" stroke-width="0.90474" stroke-linejoin="round"/>
</g>
</g>
<path id="&#60;Path&#62;_102" d="M156 65.3257L155.747 97.2289L150.608 73.3382L156 65.3257Z" stroke="#B8001F" stroke-width="0.90474" stroke-linejoin="round"/>
<path id="&#60;Path&#62;_103" d="M14.6434 35.5543L3.82275 58.9304L15.0053 47.2056L14.6434 35.5543Z" stroke="#B8001F" stroke-width="0.90474" stroke-linejoin="round"/>
<path id="&#60;Path&#62;_104" d="M127.374 20.0437L105.624 5.78284L119.304 17.0298L127.374 20.0437Z" stroke="#B8001F" stroke-width="0.90474" stroke-linejoin="round"/>
</g>
<path id="&#60;Path&#62;_105" d="M142.031 121.855L133.49 136.704L125.782 140.747L142.031 121.855Z" stroke="#B8001F" stroke-width="0.90474" stroke-linejoin="round"/>
<path id="&#60;Path&#62;_106" d="M133.49 136.704L121.692 147.436L125.782 140.747L133.49 136.704Z" stroke="#B8001F" stroke-width="0.90474" stroke-linejoin="round"/>
</g>
</g>
</g>
</svg>
