<svg width="368" height="367" viewBox="0 0 368 367" fill="none" xmlns="http://www.w3.org/2000/svg">
<path fill-rule="evenodd" clip-rule="evenodd" d="M211.986 287.794L144.647 222.468L110.851 189.596C99.5016 178.667 88.2084 167.682 76.9711 156.641C76.6357 156.222 76.6357 155.721 76.9711 155.302C77.0829 155.191 77.2227 155.107 77.3904 155.051L169.721 130.293L262.135 105.702C262.554 105.534 263.057 105.869 263.225 106.371C263.281 106.538 263.281 106.705 263.225 106.873C259.032 122.012 254.755 137.152 250.478 152.291L237.648 197.626L211.986 287.794ZM211.986 287.794L236.641 196.79L248.969 151.538C252.91 136.984 256.936 122.43 260.961 107.876L170.14 132.3L79.3192 156.473C90.1093 167.013 100.843 177.607 111.522 188.258L144.898 221.297L211.986 287.794ZM260.961 107.876L262.554 107.458L261.38 106.371C261.268 106.873 261.129 107.375 260.961 107.876ZM79.4031 156.39C79.0117 156.055 78.6204 155.693 78.229 155.302L77.8097 156.808L79.4031 156.39Z" fill="#B8001F"/>
<path d="M2 134.893L50.7229 316.399L232.784 365.08L366.038 232.17L317.315 50.5799L135.254 1.98291L2 134.893Z" stroke="#B8001F" stroke-width="2.5" stroke-linecap="round" stroke-linejoin="round"/>
<path fill-rule="evenodd" clip-rule="evenodd" d="M211.987 287.794L131.816 302.599L91.3953 310.043C77.8937 312.469 64.3922 314.894 50.8907 317.32C50.3875 317.404 49.9682 317.069 49.8005 316.567C49.8005 316.456 49.8005 316.372 49.8005 316.316L63.1343 236.018L76.7197 155.804C76.8035 155.302 77.3067 154.968 77.8099 155.051C77.9776 155.107 78.1174 155.191 78.2292 155.302C89.5224 166.343 100.76 177.412 111.941 188.509L145.401 221.715L211.987 287.794ZM211.987 287.794L144.227 222.05L110.515 189.345C99.7254 178.862 88.9633 168.379 78.2292 157.895L65.1469 236.353L51.8131 315.313C64.8115 313.054 77.726 310.796 90.7244 308.538L130.977 301.679L211.987 287.794ZM78.1453 157.812L78.4808 156.139L76.8874 156.641C77.3347 157.031 77.754 157.421 78.1453 157.812ZM51.8131 315.313C51.3659 315.368 50.9466 315.424 50.5552 315.48L51.5615 316.567L51.8131 315.313Z" fill="#B8001F"/>
<path fill-rule="evenodd" clip-rule="evenodd" d="M2 134.893L39.6533 144.846L58.6897 149.865C65.119 151.593 71.5203 153.322 77.8937 155.051C78.313 155.218 78.5646 155.636 78.5646 156.138L65.2308 236.352L51.6454 316.567C51.5615 317.068 51.1422 317.403 50.6391 317.319C50.2198 317.319 49.9682 316.985 49.8843 316.65L37.7245 271.064L25.7325 225.479L2 134.893ZM2 134.893L26.9904 225.813L39.4018 271.064L50.5552 312.134L63.2181 236.101L76.6358 156.64C70.6538 154.967 64.6997 153.266 58.7735 151.538L39.9888 146.017L2 134.893ZM50.5552 312.134L49.8843 316.316L51.7293 316.232L50.5552 312.134ZM76.5519 156.64C76.8315 156.751 77.111 156.835 77.3905 156.891L76.7197 155.887L76.5519 156.64Z" fill="#B8001F"/>
<path fill-rule="evenodd" clip-rule="evenodd" d="M317.315 50.5791L342.138 140.914L354.55 186.416C358.743 201.584 362.88 216.751 366.961 231.919C367.045 232.42 366.793 232.922 366.29 233.09C365.955 233.173 365.535 233.006 365.368 232.755L313.374 170.022L261.632 107.206C261.297 106.788 261.381 106.286 261.716 105.951C266.328 101.267 270.941 96.5831 275.637 91.8991L289.642 78.0142L317.315 50.5791ZM317.315 50.5791L289.977 79.1852L276.559 93.2374C272.282 97.7541 267.922 102.187 263.645 106.62L315.051 168.684L364.11 228.322C360.42 214.604 356.786 200.887 353.208 187.169L341.3 141.751L317.315 50.5791ZM263.561 106.704L263.058 106.035V107.29C263.225 107.066 263.393 106.871 263.561 106.704ZM364.11 228.322C364.445 229.716 364.808 231.082 365.2 232.42L366.793 231.584L364.11 228.322Z" fill="#B8001F"/>
<path fill-rule="evenodd" clip-rule="evenodd" d="M317.315 50.5794L290.396 78.7674L276.727 92.9868C272.199 97.7545 267.586 102.522 262.974 107.206C262.638 107.541 262.135 107.624 261.716 107.29L198.15 55.0962L134.667 2.65162C134.248 2.31705 134.164 1.73154 134.5 1.39697C134.751 1.06239 135.171 0.978752 135.506 1.0624C150.713 5.13305 165.919 9.25948 181.126 13.4417L226.662 25.8209L317.315 50.5794ZM317.315 50.5794L225.908 26.741L180.455 14.78C166.646 11.2112 152.865 7.5866 139.112 3.90628L199.492 53.507L262.303 105.366C266.664 100.933 271.024 96.5835 275.469 92.1503L289.306 78.4328L317.315 50.5794ZM139.112 3.90628L135.841 1.22968L135.003 2.81891C136.345 3.20924 137.714 3.5717 139.112 3.90628ZM262.303 105.366C262.079 105.533 261.884 105.729 261.716 105.952L262.974 105.868L262.303 105.366Z" fill="#B8001F"/>
<path fill-rule="evenodd" clip-rule="evenodd" d="M2 134.893L67.9982 68.2286L101.207 34.7711L134.583 1.31366C134.919 0.895445 135.506 0.895445 135.925 1.31366C136.177 1.56459 136.261 1.89916 136.093 2.23374L107.413 79.3532L78.4808 156.305C78.313 156.724 77.8099 156.975 77.3906 156.807C71.0172 155.023 64.6717 153.211 58.3542 151.37L39.4018 145.85L2 134.893ZM2 134.893L40.2404 145.013L59.109 150.032C65.091 151.593 71.0731 153.211 77.0551 154.883L105.4 78.6004L132.906 5.57948L102.633 35.6076L69.1722 68.5632L2 134.893ZM77.0551 154.883L76.8035 155.72L77.8937 155.134C77.6142 155.079 77.3347 154.995 77.0551 154.883ZM132.906 5.66313L135.925 2.65195L134.416 1.64823L132.906 5.66313Z" fill="#B8001F"/>
<path fill-rule="evenodd" clip-rule="evenodd" d="M211.987 287.794L236.558 197.375L248.969 151.873C253.078 136.734 257.271 121.51 261.464 106.371C261.548 105.869 262.135 105.534 262.554 105.702C262.778 105.757 262.946 105.869 263.058 106.036L314.967 168.685L366.793 231.585C367.128 232.004 367.044 232.589 366.625 232.84C366.569 232.952 366.485 233.007 366.374 233.007C353.459 237.691 340.545 242.32 327.63 246.892L288.887 260.61L211.987 287.794ZM211.987 287.794L289.138 259.355L327.462 245.219C339.818 240.703 352.173 236.214 364.529 231.753L313.374 170.024L262.722 108.546C258.697 122.932 254.671 137.403 250.562 151.873L237.732 196.957L211.987 287.794ZM364.529 231.753L365.367 232.756L365.703 231.335C365.311 231.502 364.92 231.641 364.529 231.753ZM262.722 108.546C262.89 107.988 263.058 107.43 263.225 106.873L261.632 107.207L262.722 108.546Z" fill="#B8001F"/>
<path fill-rule="evenodd" clip-rule="evenodd" d="M211.987 287.793L288.635 259.521L327.127 245.385C339.986 240.645 352.844 235.961 365.703 231.333C366.206 231.166 366.709 231.417 366.961 231.835C367.045 232.17 366.961 232.588 366.709 232.839L300.124 299.335L233.455 365.749C233.119 366.083 232.532 366.083 232.113 365.749C232.001 365.637 231.917 365.498 231.861 365.33C230.184 358.806 228.423 352.366 226.83 345.841L221.798 326.352C220.121 319.884 218.472 313.443 216.85 307.031L211.987 287.793ZM211.987 287.793L217.521 307.198C219.366 313.666 221.183 320.107 222.972 326.52L228.423 345.674C230.044 351.529 231.666 357.412 233.287 363.323L298.698 297.83L362.432 234.428C350.971 238.554 339.482 242.653 327.966 246.724L289.39 260.441L211.987 287.793ZM233.287 363.323L232.113 364.41L233.706 364.828C233.539 364.327 233.399 363.825 233.287 363.323ZM362.516 234.428C363.802 233.926 365.088 233.452 366.374 233.006L365.367 231.5L362.516 234.428Z" fill="#B8001F"/>
<path d="M135.254 1.98291L197.059 232.003L50.7229 316.399L2 134.893L135.254 1.98291Z" stroke="#B8001F" stroke-linecap="round" stroke-linejoin="round"/>
<path d="M135.254 1.98291L197.059 232.003L366.038 232.17L317.315 50.5799L135.254 1.98291Z" stroke="#B8001F" stroke-linecap="round" stroke-linejoin="round"/>
</svg>
