<svg width="92" height="91" viewBox="0 0 92 91" fill="none" xmlns="http://www.w3.org/2000/svg">
<g clip-path="url(#clip0_2_48)">
<path d="M46 0C20.8711 0 0.5 20.3711 0.5 45.5C0.5 70.6289 20.8711 91 46 91C71.1289 91 91.5 70.6289 91.5 45.5C91.5 20.3711 71.1289 0 46 0ZM46 78.3457C27.8599 78.3457 13.1543 63.6401 13.1543 45.5C13.1543 27.3599 27.8599 12.6543 46 12.6543C64.1401 12.6543 78.8457 27.3599 78.8457 45.5C78.8457 63.6401 64.1401 78.3457 46 78.3457Z" fill="#3A3BA9"/>
<path d="M25.7055 9.51857L27.2312 8.77389L28.6364 9.83404L28.6645 8.07395L30.1675 7.34064L29.8991 10.7205L30.649 12.2577L29.2848 12.9235L28.5454 11.4091L25.7047 9.51781L25.7055 9.51857Z" fill="white"/>
<path d="M31.7274 6.80222L33.1849 6.29565L36.2728 10.1245L34.8456 10.6204L34.4748 10.1025L33.0476 10.5984L33.084 11.2324L31.6811 11.72L31.7281 6.80146L31.7274 6.80222ZM33.0036 9.59289L33.9091 9.27818L32.9028 7.87147L33.0044 9.59289H33.0036Z" fill="white"/>
<path d="M39.7566 6.05297L38.3461 6.34645C38.246 6.09619 38.0192 6.00747 37.6666 6.08027C37.3519 6.14549 37.2124 6.26454 37.248 6.43669C37.267 6.5292 37.3314 6.5967 37.4414 6.63916C37.5513 6.68239 37.6871 6.70893 37.8486 6.71879C38.0109 6.72864 38.1883 6.73547 38.3817 6.73926C38.5751 6.74305 38.7715 6.75898 38.9702 6.7878C39.1689 6.81661 39.3547 6.86363 39.5283 6.92809C39.702 6.99254 39.8536 7.09871 39.9856 7.24659C40.1168 7.39446 40.2063 7.57949 40.2525 7.80169C40.3579 8.30977 40.2465 8.73671 39.9181 9.08327C39.5897 9.42983 39.1021 9.67022 38.4553 9.80444C37.8714 9.92578 37.3648 9.878 36.9341 9.66112C36.5033 9.44424 36.2356 9.12574 36.131 8.70486L37.5544 8.40835C37.5809 8.53424 37.6757 8.62903 37.8403 8.69349C38.0048 8.75794 38.1648 8.77387 38.3203 8.74126C38.5091 8.70183 38.6532 8.64116 38.7525 8.55926C38.8511 8.47736 38.8898 8.38409 38.8686 8.27868C38.8496 8.18616 38.7852 8.11867 38.6752 8.0762C38.5652 8.03374 38.4303 8.00795 38.2687 7.99961C38.1072 7.99203 37.9298 7.98672 37.7371 7.9852C37.5438 7.98369 37.3481 7.96776 37.1487 7.93667C36.9492 7.90558 36.7627 7.85704 36.589 7.79031C36.4154 7.72358 36.2622 7.61286 36.1295 7.45892C35.9968 7.30498 35.9058 7.11009 35.8572 6.875C35.7602 6.40939 35.8663 6.01354 36.175 5.68897C36.4836 5.3644 36.9325 5.14069 37.5203 5.01784C38.1163 4.89348 38.6016 4.93064 38.9755 5.12856C39.3494 5.32649 39.6102 5.63361 39.7581 6.04994L39.7566 6.05297Z" fill="white"/>
<path d="M42.1469 4.44226L42.6595 9.04459L41.1512 9.21218L40.6385 4.60985L42.1469 4.44226Z" fill="white"/>
<path d="M43.3724 4.30959L44.7935 4.28684L46.4876 6.78707L46.4125 5.73374L46.389 4.26106L47.842 4.23755L47.9171 8.86793L46.496 8.89068L44.8026 6.39652L44.8777 7.44985L44.9012 8.91571L43.4475 8.93921L43.3724 4.30883V4.30959Z" fill="white"/>
<path d="M52.9015 6.1622L51.4721 5.98475C51.4577 5.71554 51.2719 5.55781 50.9147 5.51383C50.5954 5.47439 50.4248 5.54188 50.4036 5.7163C50.3922 5.81033 50.4309 5.89451 50.5211 5.97034C50.6114 6.04618 50.7312 6.11518 50.8813 6.17661C51.0315 6.23879 51.1968 6.30249 51.3796 6.36771C51.5616 6.43368 51.742 6.51179 51.9202 6.60355C52.0992 6.69455 52.26 6.7992 52.4033 6.91598C52.5466 7.03353 52.6566 7.18292 52.7332 7.36492C52.8098 7.54692 52.834 7.75091 52.806 7.97689C52.7423 8.4918 52.4989 8.86035 52.0757 9.08178C51.6526 9.30398 51.1134 9.37374 50.4582 9.2926C49.8667 9.21904 49.4026 9.0105 49.0651 8.66622C48.7277 8.32193 48.5768 7.93367 48.6132 7.50218L50.0555 7.68114C50.0396 7.80854 50.0995 7.92988 50.2345 8.04363C50.3695 8.15738 50.5158 8.22411 50.6728 8.24383C50.8639 8.26733 51.0201 8.25672 51.1399 8.21122C51.2597 8.16572 51.3265 8.08988 51.3401 7.98296C51.3515 7.88968 51.3128 7.80475 51.2226 7.72892C51.1323 7.65308 51.0125 7.58483 50.8624 7.52568C50.7122 7.46578 50.5461 7.40435 50.3634 7.34065C50.1814 7.27695 50.0009 7.19884 49.8219 7.10481C49.6437 7.01153 49.483 6.90537 49.3396 6.78555C49.1963 6.66649 49.0871 6.51255 49.0113 6.32373C48.9354 6.1349 48.9119 5.92181 48.9415 5.68293C48.9999 5.21049 49.2282 4.87076 49.6255 4.66298C50.0229 4.45519 50.5196 4.38846 51.1149 4.46202C51.7193 4.53709 52.1659 4.72819 52.4564 5.03683C52.7461 5.34472 52.8939 5.72009 52.9 6.16144L52.9015 6.1622Z" fill="white"/>
<path d="M55.8174 5.44251L55.4374 6.89169L57.1058 5.77997L58.8287 6.23194L56.7501 7.48849L57.8277 10.7569L56.0668 10.2951L55.4594 8.22711L55.015 8.50239L54.6427 9.92047L53.1746 9.53524L54.35 5.05652L55.8181 5.44175L55.8174 5.44251Z" fill="white"/>
<path d="M61.2372 7.17232L59.6052 11.5062L58.1849 10.9716L59.8168 6.6377L61.2372 7.17232Z" fill="white"/>
<path d="M62.0236 7.42105L63.5456 8.17331L63.5653 9.93341L64.9758 8.88008L66.475 9.62097L63.6358 11.4743L62.8775 13.0077L61.517 12.335L62.264 10.8244L62.0244 7.42029L62.0236 7.42105Z" fill="white"/>
<path d="M15.3868 69.6878L14.558 68.5094C14.8128 68.1939 14.8234 67.8693 14.5883 67.5364C14.4207 67.2983 14.1947 67.1883 13.9119 67.2065C13.6283 67.2247 13.3151 67.3552 12.9715 67.5971C12.2875 68.0786 12.1321 68.5837 12.5052 69.113C12.5992 69.2465 12.7327 69.3488 12.9063 69.4201C13.08 69.4922 13.2415 69.499 13.3894 69.4421L13.0042 68.8953L13.8247 68.3183L15.0206 70.0169L12.9374 71.4828L12.3747 70.6835L12.7046 70.3809C12.2109 70.3354 11.7885 70.0632 11.4382 69.565C11.2653 69.3193 11.1432 69.0599 11.0704 68.7854C10.9984 68.5109 10.9794 68.2333 11.0143 67.952C11.0492 67.6706 11.1584 67.3908 11.3404 67.1133C11.5224 66.8357 11.7734 66.5847 12.0919 66.3602C12.7023 65.931 13.3204 65.7627 13.9475 65.8567C14.5747 65.95 15.1009 66.3003 15.5286 66.907C15.8593 67.3772 16.0185 67.8602 16.0056 68.3562C15.9935 68.8529 15.7865 69.2965 15.3861 69.6886L15.3868 69.6878Z" fill="white"/>
<path d="M17.1454 69.301L19.6896 72.0902L18.8911 72.8182L17.3699 71.1506L16.8808 71.5973L18.1684 73.0085L17.3699 73.7365L16.0822 72.3253L15.5453 72.8151L17.1272 74.5495L16.3287 75.2775L13.7238 72.4223L17.1447 69.3018L17.1454 69.301Z" fill="white"/>
<path d="M21.8835 73.8707C22.1876 74.1293 22.4159 74.4122 22.5706 74.7208C22.7245 75.0295 22.8011 75.3336 22.7988 75.6331C22.7973 75.9326 22.7427 76.2231 22.6365 76.5037C22.5296 76.7843 22.3749 77.0444 22.1724 77.2825C21.675 77.8672 21.1108 78.1781 20.4798 78.2152C19.8489 78.2524 19.2635 78.0416 18.7251 77.5835C18.1631 77.1058 17.8568 76.5575 17.806 75.9395C17.7544 75.3214 17.9804 74.717 18.4831 74.1263C18.9526 73.5742 19.4986 73.2762 20.1219 73.2322C20.7453 73.1882 21.3322 73.4006 21.8843 73.87L21.8835 73.8707ZM21.1403 74.7246C20.9773 74.5858 20.7968 74.5229 20.6004 74.5358C20.404 74.5487 20.2281 74.6078 20.0741 74.7125C19.9194 74.8179 19.7723 74.9536 19.6305 75.1205C19.5251 75.2448 19.4364 75.3707 19.3643 75.4981C19.2923 75.6255 19.2369 75.7628 19.1967 75.9084C19.1565 76.054 19.1581 76.1988 19.1998 76.3414C19.2415 76.484 19.3279 76.6106 19.4584 76.7221C19.6965 76.9245 19.9498 76.9829 20.2182 76.8957C20.4867 76.8085 20.7528 76.6098 21.0167 76.2997C21.2473 76.029 21.3853 75.7491 21.4308 75.461C21.4763 75.1728 21.3792 74.9271 21.1411 74.7246H21.1403Z" fill="white"/>
<path d="M23.9992 75.8121L25.5538 76.7828L24.7174 79.6652L26.9393 77.648L28.4939 78.6187L26.0414 82.5469L24.885 81.8249L25.6342 80.6245C25.87 80.2461 26.1726 79.8229 26.5404 79.355L26.5298 79.3482L24.2419 81.4222L23.3471 80.8634L24.2063 77.8968L24.1956 77.8899C23.9439 78.4147 23.7232 78.8287 23.5351 79.1306L22.704 80.4614L21.5475 79.7395L24 75.8113L23.9992 75.8121Z" fill="white"/>
<path d="M29.0968 78.8765L32.5442 80.4159L32.1036 81.4025L30.0424 80.4819L29.7725 81.0871L31.5166 81.8659L31.076 82.8525L29.3319 82.0737L29.0354 82.7372L31.1792 83.6942L30.7386 84.6808L27.2093 83.105L29.0968 78.8765Z" fill="white"/>
<path d="M35.3128 82.4415L34.2603 85.832L32.8103 85.3823L33.8629 81.9918L32.5609 81.5876L32.8809 80.5555L36.9349 81.8143L36.6149 82.8464L35.3128 82.4422V82.4415Z" fill="white"/>
<path d="M38.315 85.1479L38.0322 86.7374L36.5383 86.4712L37.3504 81.9121L39.5034 82.2958C40.2465 82.4285 40.7516 82.6234 41.0193 82.8828C41.287 83.1414 41.3795 83.4993 41.2983 83.9551C41.2498 84.2296 41.1429 84.4548 40.9791 84.63C40.8145 84.8051 40.5976 84.906 40.3277 84.9318C40.4225 84.9879 40.493 85.0311 40.54 85.0607C40.587 85.091 40.6424 85.1343 40.7061 85.1919C40.7698 85.2488 40.8145 85.3057 40.8388 85.3625C40.8638 85.4194 40.8865 85.4907 40.9085 85.5771C40.9305 85.6636 40.9381 85.7644 40.9336 85.8789C40.9283 85.9935 40.9123 86.1269 40.885 86.2786C40.8274 86.6039 40.7993 86.82 40.8024 86.927C40.8047 87.0339 40.838 87.093 40.9017 87.1044L40.8767 87.2439L39.3631 86.974C39.3365 86.8299 39.3585 86.5592 39.429 86.1626C39.4844 85.8501 39.4723 85.6317 39.3926 85.5059C39.3123 85.3807 39.106 85.2882 38.7723 85.2291L38.3166 85.1479H38.315ZM38.6548 83.2422L38.4933 84.1477L39.0825 84.2523C39.3229 84.2955 39.5071 84.2933 39.6353 84.2463C39.7635 84.1992 39.8408 84.0999 39.8681 83.9482C39.8962 83.792 39.862 83.6639 39.7665 83.5645C39.6709 83.4652 39.5322 83.3984 39.3509 83.3666L38.654 83.2422H38.6548Z" fill="white"/>
<path d="M41.6798 82.6932L43.3754 82.7751L44.0959 84.3813L44.9679 82.8525L46.6385 82.9336L44.7753 85.7668L44.6927 87.4753L43.1768 87.4017L43.2579 85.719L41.6783 82.6932H41.6798Z" fill="white"/>
<path d="M51.0831 82.3921C51.4782 82.3383 51.8422 82.3565 52.1744 82.4475C52.5065 82.5385 52.7848 82.6849 53.007 82.8858C53.2292 83.0868 53.4089 83.3211 53.5477 83.588C53.6857 83.855 53.776 84.1431 53.8184 84.4533C53.9223 85.2139 53.7775 85.8418 53.3839 86.3362C52.9911 86.8314 52.4436 87.1264 51.7421 87.222C51.0111 87.3213 50.3991 87.1848 49.9039 86.811C49.4095 86.4371 49.1099 85.8653 49.0045 85.0964C48.9067 84.3782 49.0493 83.7723 49.4315 83.2786C49.8144 82.785 50.3642 82.4892 51.0824 82.3914L51.0831 82.3921ZM51.2234 83.5152C51.0111 83.5441 50.8443 83.6366 50.7222 83.7913C50.6008 83.9467 50.5273 84.1166 50.503 84.3016C50.4787 84.4867 50.481 84.6876 50.5106 84.9045C50.5326 85.066 50.5675 85.2162 50.6145 85.3542C50.6615 85.493 50.7259 85.6257 50.8086 85.7531C50.8905 85.8805 50.999 85.976 51.1332 86.0397C51.2674 86.1034 51.4198 86.1239 51.5897 86.1012C51.8999 86.0587 52.1122 85.9085 52.2259 85.6507C52.3404 85.3929 52.3693 85.0622 52.3147 84.6588C52.2669 84.3062 52.1501 84.0172 51.9658 83.7913C51.7815 83.5653 51.5343 83.4735 51.2242 83.516L51.2234 83.5152Z" fill="white"/>
<path d="M55.439 81.6566L56.3475 85.0888L58.3616 84.5557L58.6384 85.6L55.1569 86.5221L53.9716 82.0456L55.439 81.6574V81.6566Z" fill="white"/>
<path d="M56.851 81.3457L58.4397 80.7466L59.7395 81.9334L59.9321 80.1839L61.4966 79.5939L60.9134 82.9344L61.5171 84.5352L60.0967 85.0706L59.5022 83.494L56.8503 81.3457H56.851Z" fill="white"/>
<path d="M61.6975 79.5143L63.3021 78.6286L65.4126 80.7625L64.7324 77.8399L66.337 76.9542L68.5741 81.009L67.3805 81.6672L66.6972 80.4281C66.4818 80.0375 66.2596 79.5681 66.0299 79.0183L66.0185 79.0244L66.7162 82.0327L65.7925 82.5423L63.6191 80.3477L63.6078 80.3538C63.9437 80.8292 64.1977 81.2236 64.3699 81.5345L65.1282 82.9086L63.9346 83.5676L61.6975 79.5128V79.5143Z" fill="white"/>
<path d="M69.9876 78.1986L70.8544 79.349L69.6426 80.262L66.8564 76.5636L68.6385 75.2206C69.1587 74.8285 69.6357 74.6428 70.0672 74.664C70.4987 74.6852 70.862 74.8907 71.1562 75.2813C71.4656 75.6923 71.5793 76.1071 71.4982 76.5257C71.4163 76.9443 71.1168 77.3485 70.5996 77.7383L69.9884 78.1986H69.9876ZM68.7182 76.5136L69.3377 77.3356L69.8412 76.9564C70.1666 76.7115 70.2212 76.4453 70.0043 76.1571C69.8079 75.897 69.4947 75.9289 69.0632 76.2542L68.7189 76.5136H68.7182Z" fill="white"/>
<path d="M71.703 72.6203L74.8205 76.0442L73.6981 77.0664L70.5806 73.6425L71.703 72.6203Z" fill="white"/>
<path d="M73.1226 71.2014L74.1615 70.0594L78.7031 71.9484L77.6862 73.0662L77.1129 72.7879L76.096 73.9057L76.4312 74.4456L75.4317 75.5444L73.1226 71.2007V71.2014ZM75.5773 73.0434L76.2219 72.3344L74.6658 71.5791L75.5773 73.0427V73.0434Z" fill="white"/>
<path d="M79.2416 71.2431L75.4438 68.5935L76.6071 66.9267C77.0462 66.2973 77.5376 65.9151 78.0821 65.7794C78.6258 65.6444 79.2021 65.7885 79.8111 66.2131C81.1298 67.133 81.3202 68.2652 80.3829 69.6082L79.2416 71.2431ZM77.1986 67.9671L79.2241 69.3807L79.4084 69.1168C79.8255 68.5192 79.6928 67.9823 79.0111 67.5061C78.6243 67.2361 78.3126 67.1208 78.076 67.1595C77.8394 67.1982 77.6028 67.3885 77.3647 67.7298L77.1994 67.9671H77.1986Z" fill="white"/>
<path d="M76.4979 55.4763L45.7845 77.4406L46.3906 78.2881L77.104 56.3238L76.4979 55.4763Z" fill="#B8001F"/>
<path d="M15.4653 55.4762L14.8621 56.3257L45.7859 78.2859L46.3892 77.4364L15.4653 55.4762Z" fill="#B8001F"/>
<path d="M77.6499 56.4253H13.9256L55.847 13.5408L77.6506 56.4246L77.6499 56.4253ZM16.4008 55.3834H75.952L55.5763 15.3077L16.4008 55.3834Z" fill="#3A3BA9"/>
<path d="M46.0849 78.3867C41.6358 78.3867 37.3194 77.5153 33.2554 75.7962C29.3311 74.1362 25.8063 71.7596 22.7791 68.7331C19.7526 65.7066 17.3759 62.1818 15.716 58.2567C13.9968 54.1928 13.1255 49.8764 13.1255 45.4272C13.1255 40.9781 13.9968 36.6616 15.716 32.5977C17.3759 28.6726 19.7526 25.1479 22.7791 22.1214C25.8056 19.0948 29.3303 16.7182 33.2554 15.0582C37.3194 13.3391 41.6358 12.4678 46.0849 12.4678C50.5341 12.4678 54.8505 13.3391 58.9144 15.0582C62.8388 16.7182 66.3635 19.0948 69.3908 22.1214C72.4181 25.1479 74.7939 28.6726 76.4539 32.5977C78.173 36.6616 79.0444 40.9781 79.0444 45.4272C79.0444 49.8764 78.173 54.1928 76.4539 58.2567C74.7939 62.1818 72.4173 65.7066 69.3908 68.7331C66.3643 71.7596 62.8395 74.1362 58.9144 75.7962C54.8505 77.5153 50.5341 78.3867 46.0849 78.3867ZM46.0849 13.5105C28.4855 13.5105 14.1674 27.8286 14.1674 45.428C14.1674 63.0274 28.4855 77.3455 46.0849 77.3455C63.6843 77.3455 78.0024 63.0274 78.0024 45.428C78.0024 27.8286 63.6843 13.5105 46.0849 13.5105Z" fill="#071952"/>
<path d="M51.7102 56.329C47.4863 56.329 43.5165 54.6872 40.5317 51.7062C37.5453 48.7237 35.9005 44.7553 35.9005 40.5314C35.9005 31.8106 42.9924 24.7148 51.7102 24.7148C60.428 24.7148 67.52 31.8098 67.52 40.5314C67.52 44.7553 65.8751 48.7237 62.8896 51.7062C59.9048 54.6872 55.9349 56.329 51.711 56.329H51.7102ZM51.7102 25.7568C43.5673 25.7568 36.9425 32.3846 36.9425 40.5314C36.9425 48.6782 43.5673 55.2871 51.7102 55.2871C59.8532 55.2871 66.478 48.6676 66.478 40.5314C66.478 32.3952 59.8532 25.7568 51.7102 25.7568Z" fill="#3A3BA9"/>
<path d="M51.1915 40.4401L45.5704 77.7844L46.6007 77.9395L52.2218 40.5952L51.1915 40.4401Z" fill="#B8001F"/>
<path d="M76.8012 57.7418C77.816 57.7418 78.6387 56.9191 78.6387 55.9043C78.6387 54.8895 77.816 54.0669 76.8012 54.0669C75.7865 54.0669 74.9638 54.8895 74.9638 55.9043C74.9638 56.9191 75.7865 57.7418 76.8012 57.7418Z" fill="#071952"/>
<path d="M51.7103 42.3598C52.7251 42.3598 53.5477 41.5371 53.5477 40.5223C53.5477 39.5075 52.7251 38.6849 51.7103 38.6849C50.6955 38.6849 49.8729 39.5075 49.8729 40.5223C49.8729 41.5371 50.6955 42.3598 51.7103 42.3598Z" fill="#071952"/>
<path d="M55.6415 16.2617C56.6563 16.2617 57.4789 15.4391 57.4789 14.4243C57.4789 13.4095 56.6563 12.5869 55.6415 12.5869C54.6267 12.5869 53.804 13.4095 53.804 14.4243C53.804 15.4391 54.6267 16.2617 55.6415 16.2617Z" fill="#071952"/>
<path d="M15.1632 57.7418C16.178 57.7418 17.0006 56.9191 17.0006 55.9043C17.0006 54.8895 16.178 54.0669 15.1632 54.0669C14.1484 54.0669 13.3257 54.8895 13.3257 55.9043C13.3257 56.9191 14.1484 57.7418 15.1632 57.7418Z" fill="#071952"/>
<path d="M46.0857 79.7031C47.1005 79.7031 47.9232 78.8805 47.9232 77.8657C47.9232 76.8509 47.1005 76.0283 46.0857 76.0283C45.0709 76.0283 44.2483 76.8509 44.2483 77.8657C44.2483 78.8805 45.0709 79.7031 46.0857 79.7031Z" fill="#071952"/>
<path d="M47.3482 58.9337L47.2743 59.4494L50.3775 59.8944L50.4514 59.3787L47.3482 58.9337Z" fill="#071952"/>
<path d="M61.7921 64.7001L61.3752 65.0125L63.2548 67.5214L63.6718 67.209L61.7921 64.7001Z" fill="#071952"/>
<path d="M30.492 64.8816L28.7177 67.4661L29.1472 67.761L30.9215 65.1765L30.492 64.8816Z" fill="#071952"/>
</g>
<defs>
<clipPath id="clip0_2_48">
<rect width="91" height="91" fill="white" transform="translate(0.5)"/>
</clipPath>
</defs>
</svg>
